<svg height="512pt" viewBox="0 0 512 512" width="512pt" xmlns="http://www.w3.org/2000/svg"><path d="m512 512h-512v-480c0-17.679688 14.320312-32 32-32h448c17.679688 0 32 14.320312 32 32zm0 0" fill="#d7dee2"/><path d="m480 0h-448c-17.679688 0-32 14.320312-32 32v112h512v-112c0-17.679688-14.320312-32-32-32zm0 0" fill="#77959e"/><path d="m64 192h384v256h-384zm0 0" fill="#57565c"/><path d="m128 256v80c0 20.832031 13.425781 38.433594 32 45.054688v66.945312h32v-66.945312c18.574219-6.621094 32-24.222657 32-45.054688v-80zm0 0" fill="#e4edfb"/><path d="m448 280v168h-158.878906l-4.800782-5.921875c-18.082031-19.839844-28.320312-46.398437-28.320312-74.078125 0-61.761719 50.238281-112 112-112 12.480469 0 24.960938 2.238281 37.28125 6.558594zm0 0" fill="#24b2d3"/><path d="m448 256v192h-94.558594l-4.640625-5.121094c-16-17.757812-25.121093-40.957031-28.640625-73.117187-3.039062-26.242188 5.917969-52.640625 25.121094-74.242188 21.757812-24.480469 54.238281-39.359375 86.558594-39.519531zm0 0" fill="#48c8ef"/><g fill="#fff"><path d="m64 64h32v32h-32zm0 0"/><path d="m128 64h32v32h-32zm0 0"/><path d="m192 64h32v32h-32zm0 0"/></g><path d="m432 96h-128c-8.832031 0-16-7.167969-16-16s7.167969-16 16-16h128c8.832031 0 16 7.167969 16 16s-7.167969 16-16 16zm0 0" fill="#ffda47"/><path d="m64 192h384v32h-384zm0 0" fill="#2d2d30"/></svg>