<?xml version="1.0"?>
<svg xmlns="http://www.w3.org/2000/svg" id="Layer_1" data-name="Layer 1" viewBox="0 0 512 512" width="512" height="512"><title>Shower2</title><path d="M417.148,345H414V334.658a104.077,104.077,0,0,0-68-97.3V182.525A7.384,7.384,0,0,0,338.265,175H318V151.535A60.59,60.59,0,0,0,257.127,91H146V24.194A8.451,8.451,0,0,0,137.675,16H77.948A8.124,8.124,0,0,0,70,24.194V172.946A8,8,0,0,0,77.948,181h59.727A8.33,8.33,0,0,0,146,172.946V107H257.127A44.572,44.572,0,0,1,302,151.535V175H281.919c-4.418,0-7.919,3.106-7.919,7.525v54.833a104.14,104.14,0,0,0-68,97.3V345h-2.965a24.5,24.5,0,1,0,0,49H417.148a24.5,24.5,0,1,0,0-49ZM130,165H86V32h44Zm92,169.658a87.175,87.175,0,0,1,17.677-52.636,88.8,88.8,0,0,1,44.555-31.29A8.1,8.1,0,0,0,290,243.085V191h40v52.085a8.119,8.119,0,0,0,5.785,7.647,88.451,88.451,0,0,1,36.371,21.856A87.325,87.325,0,0,1,398,334.658V344H222ZM417.148,378H203.035a8.509,8.509,0,1,1,0-17H417.148a8.509,8.509,0,1,1,0,17Z"/><path d="M310,416a8,8,0,0,0-8,8v64a8,8,0,0,0,16,0V424A8,8,0,0,0,310,416Z"/><path d="M344,416a8,8,0,0,0-8,8v64a8,8,0,0,0,16,0V424A8,8,0,0,0,344,416Z"/><path d="M378,416a8,8,0,0,0-8,8v64a8,8,0,0,0,16,0V424A8,8,0,0,0,378,416Z"/><path d="M209,416a8,8,0,0,0-8,8v64a8,8,0,0,0,16,0V424A8,8,0,0,0,209,416Z"/><path d="M242,416a8,8,0,0,0-8,8v64a8,8,0,0,0,16,0V424A8,8,0,0,0,242,416Z"/><path d="M276,416a8,8,0,0,0-8,8v64a8,8,0,0,0,16,0V424A8,8,0,0,0,276,416Z"/><path d="M412,416a8,8,0,0,0-8,8v64a8,8,0,0,0,16,0V424A8,8,0,0,0,412,416Z"/></svg>
