<svg height="576pt" viewBox="-104 -18 576 576" width="576pt" xmlns="http://www.w3.org/2000/svg"><path d="m21.765625 262.5c-14.8125-.074219-26.996094 11.644531-27.5 26.449219-.496094 14.804687 10.871094 27.320312 25.648437 28.246093 5.519532 59.96875 44.425782 111.675782 100.515626 133.589844l3.75 18.75c4.394531 21.972656 3.332031 34.179688-2.453126 52.964844h-51.210937c-4.832031 0-8.75 3.914062-8.75 8.75s3.917969 8.75 8.75 8.75h215c4.835937 0 8.75-3.914062 8.75-8.75s-3.914063-8.75-8.75-8.75h-51.214844c-5.785156-18.785156-6.847656-31.011719-2.453125-52.984375l3.75-18.769531c56.09375-21.925782 94.996094-73.644532 100.515625-133.621094 14.816407-.851562 26.253907-13.375 25.75-28.214844-.496093-14.839844-12.753906-26.5625-27.597656-26.410156h-97.5v-57.5h35c32.492187-.1875 58.742187-26.566406 58.75-59.0625v-90.9375h3.75c15.191406 0 27.5-12.3125 27.5-27.5s-12.308594-27.5-27.5-27.5h-312.5c-15.183594 0-27.5 12.3125-27.5 27.5s12.316406 27.5 27.5 27.5h3.75v90.9375c.011719 32.496094 26.261719 58.875 58.75 59.0625h35v57.5zm194.332031 260h-76.15625c5.605469-20.304688 5.761719-34.632812 1.40625-56.414062l-1.855468-9.257813c25.296874 6.3125 51.75 6.3125 77.050781 0l-1.851563 9.257813c-4.359375 21.78125-4.203125 36.109374 1.40625 56.414062zm-38.082031-78.125c-72.425781-.054688-133.09375-54.835938-140.523437-126.875h281.046874c-7.425781 72.039062-68.097656 126.820312-140.523437 126.875zm166.25-154.375c-.003906 5.523438-4.476563 9.996094-10 10h-312.5c-5.523437 0-10-4.476562-10-10s4.476563-10 10-10h312.5c5.523437.003906 9.996094 4.476562 10 10zm-332.5-262.5c.003906-5.523438 4.476563-9.996094 10-10h312.5c5.523437 0 10 4.476562 10 10s-4.476563 10-10 10h-312.5c-5.523437-.003906-9.996094-4.476562-10-10zm31.25 118.4375v-90.9375h270v90.9375c0 22.832031-18.417969 41.390625-41.25 41.5625h-187.5c-22.832031-.171875-41.25-18.730469-41.25-41.5625zm93.75 59.0625h82.5v57.5h-82.5zm0 0"/><path d="m133.332031 381.703125c-33.691406-6.121094-36.484375-34.476563-36.589843-35.796875-.40625-4.769531-4.570313-8.324219-9.347657-7.980469-4.773437.339844-8.386719 4.457031-8.109375 9.230469 1.03125 14.890625 12.988282 44.867188 50.917969 51.757812 3.089844.601563 6.265625-.507812 8.316406-2.902343 2.046875-2.394531 2.644531-5.703125 1.570313-8.667969-1.074219-2.964844-3.65625-5.117188-6.761719-5.644531zm0 0"/><path d="m157.746094 81.386719-28.109375 9.375c-5.6875-14.78125-21.371094-23.140625-36.8125-19.621094-15.441407 3.515625-25.957031 17.84375-24.675781 33.632813 1.273437 15.789062 13.953124 28.238281 29.761718 29.230468 15.804688.992188 29.941406-9.78125 33.183594-25.285156l32.191406-10.726562c4.585938-1.527344 7.058594-6.484376 5.53125-11.070313-1.527344-4.582031-6.484375-7.058594-11.070312-5.53125zm-57.855469 35.175781c-7.9375 0-14.375-6.4375-14.375-14.375s6.4375-14.375 14.375-14.375c7.941406 0 14.375 6.4375 14.375 14.375-.007813 7.933594-6.441406 14.367188-14.375 14.375zm0 0"/></svg>