<?xml version="1.0"?>
<svg xmlns="http://www.w3.org/2000/svg" id="Layer_1" data-name="Layer 1" viewBox="0 0 512 512" width="512" height="512"><title>Laundry</title><path d="M428,62.21A32.21,32.21,0,0,0,395.79,30H117.21A32.21,32.21,0,0,0,85,62.21V449.79A32.21,32.21,0,0,0,117.21,482H395.79A32.21,32.21,0,0,0,428,449.79Zm-17,.106V132H252V46H395.21C404.149,46,411,53.377,411,62.316ZM145,46h55V85.861l-55-.935Zm-28.21,0H129V92.79a8.161,8.161,0,0,0,8.047,8L207.441,102h.138a8.507,8.507,0,0,0,5.818-2.294A8.214,8.214,0,0,0,216,94V46h20v86H101V62.316C101,53.377,107.851,46,116.79,46ZM395.21,466H116.79c-8.939,0-15.79-7.377-15.79-16.316V148H411V449.684C411,458.623,404.149,466,395.21,466Z"/><path d="M280.79,81h96.315a8,8,0,0,0,0-16H280.79a8,8,0,0,0,0,16Z"/><path d="M377.105,92H280.79a8,8,0,0,0,0,16h96.315a8,8,0,0,0,0-16Z"/><path d="M256,223.532A82.468,82.468,0,1,0,338.468,306,82.561,82.561,0,0,0,256,223.532Zm0,148.936A66.468,66.468,0,1,1,307.952,264.61a43.687,43.687,0,0,0-.2,83.029A66.361,66.361,0,0,1,256,372.468Zm60.531-39.062a27.691,27.691,0,0,1,.133-54.52,66.229,66.229,0,0,1-.133,54.52Z"/><path d="M256,184.7A121.3,121.3,0,1,0,377.3,306,121.435,121.435,0,0,0,256,184.7ZM256,411.3A105.3,105.3,0,1,1,361.3,306,105.416,105.416,0,0,1,256,411.3Z"/></svg>
